<?xml version="1.0" encoding="utf-8"?>
<!-- Generator: Adobe Illustrator 16.0.0, SVG Export Plug-In . SVG Version: 6.00 Build 0)  -->
<!DOCTYPE svg PUBLIC "-//W3C//DTD SVG 1.1//EN" "http://www.w3.org/Graphics/SVG/1.1/DTD/svg11.dtd">
<svg version="1.1" id="you" xmlns="http://www.w3.org/2000/svg" xmlns:xlink="http://www.w3.org/1999/xlink" x="0px" y="0px"
	 width="1119.5px" height="1065px" viewBox="0 0 1119.5 1065" enable-background="new 0 0 1119.5 1065" xml:space="preserve">
<path fill-rule="evenodd" clip-rule="evenodd" fill="#172A41" d="M6.159,489.244c6.84-13.679,20.91-38.247,32.198-49.535
	c0-3.597,14.267-25.413,17.337-28.483c0-4.77,16.33-36.143,19.814-39.628c0-5.442,18.854-32.544,23.529-38.389
	c1.579-1.974,18.576-32.813,18.576-34.675c13.872-13.872,21.773-32.659,32.198-48.297c6.273-9.409,10.096-20.192,14.86-29.721
	c2.749-5.497,9.029-13.982,13.622-18.575c0-4.165,22-33.145,26.006-37.151c0-1.222,18.377-26.526,19.814-27.244
	c0-4.392,25.376-36.673,29.721-42.104c3.715-7.429,7.431-14.861,11.146-22.291c6.858-10.287,27.244-33.042,27.244-43.343
	c7.043-7.043,15.335-12.858,22.291-19.814c2.885,0,2.728,4.457,8.669,2.477c5.766-1.922,13.274-6.541,18.576-1.238
	c2.394,0,12.384-1.058,12.384,1.238c4.328,0,16.961-0.376,19.814,2.477c18.323,0,34.133-3.715,52.012-3.715
	c0,1.651-0.413,1.238,1.238,1.238c5.497,0,15.187,8.669,16.099,8.669c-4.874,4.874-3.715,16.225-3.715,23.529
	c-8.917,8.917-33.436,38.757-33.436,49.535c-2.817,2.817-8.669,12.304-8.669,16.099c-18.987,18.987-31.987,41.894-49.535,59.442
	c0,5.525-20.867,30.773-26.006,35.913c0,0.725-13.263,28.124-13.622,28.483c0,36.734,2.272,75.528-3.715,111.453
	c0,58.198,0,116.413,0,174.611c-2.169,2.169-2.477,33.556-2.477,38.389c-2.999,2.999-2.477,33.841-2.477,39.628
	c0,35.795-1.239,72.486-1.239,108.977c0,70.407,2.477,140.117,2.477,210.523c-1.208,1.209-3.715,22.311-3.715,24.768
	c0,13.813-3.715,26.524-3.715,39.628c-3.709,3.709-6.192,14.399-6.192,19.814c-1.421,1.42-6.192,6.66-6.192,8.668
	c-3.715,2.89-7.431,5.78-11.145,8.669c-10.847,0-18.863,4.716-29.721,7.43c-4.807,1.202-9.646,1.238-14.861,1.238
	c-4.461,4.461-46.361,12.384-55.727,12.384l-8.669-4.954c0-3.138-6.35-10.065-8.669-12.384c0-17.708-8.01-47.216-3.715-64.395
	c1.651-11.557,3.302-23.118,4.954-34.675c5.466-21.862,6.277-43.856,9.907-65.633c0-11.97,0-23.943,0-35.913
	c4.656-18.626,1.238-42.61,1.238-61.918c0-39.211,0-78.434,0-117.646c-1.238-43.751-2.477-87.516-3.715-131.267
	c0-14.859,0-29.723,0-44.582c0-5.136-2.477-19.24-2.477-18.576c-0.516,0.516-16.099,17.313-16.099,17.337
	c-2.384,0-6.891,3.176-8.669,4.954c-1.651,0-1.238-0.413-1.238,1.239c-4.506,0-14.861,9.397-14.861,13.622
	c-2.014,0-22.772,6.673-23.529,7.43c-9.906-0.413-19.815-0.826-29.721-1.239c-14.373,4.791-31.365,6.192-48.297,6.192
	c-3.038-3.039-6.192-3.842-6.192-7.431C8.636,490.07,7.397,489.657,6.159,489.244z"/>
<path fill-rule="evenodd" clip-rule="evenodd" fill="#172A41" d="M361.575,319.587c-3.948-15.792,6.935-13.374,11.146-26.006
	c2.193-6.581,11.199-29.774,18.576-37.151c0.413-2.064,0.826-4.128,1.238-6.192c1.238-1.651,2.477-3.302,3.715-4.953
	c3.342-13.369,24.537-51.781,34.675-61.919c0-7.365,20.978-35.8,26.006-43.343c4.223-6.335,14.861-24.279,14.861-30.959
	c7.057-7.057,14.151-24.586,18.576-33.436c1.651-1.651,3.303-3.302,4.954-4.954c0-6.42,26.03-38.426,30.959-45.82
	c2.477-1.651,4.954-3.302,7.431-4.953c7.452,0,14.106-2.477,22.291-2.477c0,2.704,12.982,2.477,16.099,2.477
	c18.169,0,36.619,4.953,54.489,4.953c0,5.317,19.814,14.006,19.814,27.244c-3.498,6.995-8.667,13.62-13.622,18.575
	c-2.477,4.953-4.954,9.908-7.431,14.861c0,5.779,0,11.559,0,17.337c0,4.905-2.711,17.337,3.715,17.337
	c0,1.072,15.741,13.622,17.337,13.622c0,4.061,17.38,3.715,21.052,3.715c3.081,3.081,14.322,1.239,18.576,1.239
	c16.882,0,33.612,1.239,50.773,1.239c17.749,0,35.502,0,53.251,0c10.133,0,21.322,1.171,30.959-1.239c7.429,0,14.861,0,22.291,0
	c9.686-2.421,20.125-1.316,29.721-3.715c3.715-0.825,7.431-1.651,11.146-2.477c12.666,0,48.297-4.053,48.297-6.192
	c14.859,0,29.723,0,44.582,0c13.25,4.416,29.131,6.192,43.343,6.192c7.017,0.413,14.036,0.826,21.053,1.239
	c4.11,0,41.41,1.781,44.582,4.953c2.59,0,9.907-0.203,9.907,2.477c1.8,0,9.907,5.064,9.907,6.192c2.561,0,7.43,4.036,7.43,6.192
	c0,7.188-1.238,14.523-1.238,22.291c-5.669,5.669-18.099,25.336-19.814,32.198c-4.498,17.991-18.576,39.594-18.576,58.203
	c-5.533,5.533-10.071,15.189-13.622,22.291c-1.323,2.646-7.413,11.146-8.669,11.146c0,8.172-8.917,20.187-13.622,27.244
	c-0.949,1.423-11.146,14.839-11.146,14.86c-6.191,4.127-12.384,8.256-18.576,12.384c-2.792,0-11.754,0.608-13.622,2.477
	c-7.843,0-15.687,0-23.53,0c-3.328,0-19.814-0.636-19.814-3.715c-5.339,0-21.052-5.563-21.052-11.146
	c-7.207,0-1.582-27.453,0-32.198c9.967-29.903,28.482-63.09,28.482-95.354c-2.694,0-4.942-6.192-9.907-6.192
	c-5.702,5.702-17.959,3.715-26.006,3.715c-3.598,3.598-11.57-0.271-16.099,1.238c-23.576,7.859-50.605-10.075-68.111,7.43
	c0,4.787-4.144,14.051-7.431,17.337c0,17.282,1.671,36.661-2.477,53.25c0.413,28.067,0.826,56.142,1.238,84.209
	c-6.503,32.518-6.192,67.25-6.192,101.546c0,14.446,0,28.897,0,43.343c-2.527,12.637,1.857,27.246-1.238,39.628
	c-3.19,12.76-3.715,35.031-3.715,48.296c0,32.25-2.794,66.207,2.477,97.832c0,9.081,0,18.164,0,27.244
	c2.488,17.416,1.238,35.613,1.238,53.25c0,13.758,1.439,28.718-1.238,42.104c0,23.527,0,47.061,0,70.587
	c-4.343,21.712,1.9,46.31-4.954,66.872c-1.579,4.736,2.499,12.361-1.238,16.099c0,5.779,0,11.559,0,17.337
	c-1.651,7.429-3.303,14.861-4.954,22.291c-1.477,0-3.715,4.4-3.715,6.192c-4.957,4.958-23.529,23.619-23.529,24.768
	c-0.616,0-23.24,7.141-23.529,7.43c-10.319,0-20.641,0-30.959,0c-5-5-32.197-12.384-40.867-12.384
	c-3.471-3.471-10.137-4.701-16.099-6.192c-7.017-4.127-14.036-8.256-21.052-12.384c-6.191-2.477-12.385-4.954-18.576-7.43
	c-5.338-5.338-14.65-9.767-22.291-14.86c-3.95-2.633-14.86-6.926-14.86-9.907c-7.842-4.127-15.687-8.256-23.529-12.384
	c-10.341-2.585-22.212-7.43-33.437-7.43c0-4.905-9.89-13.605-14.86-18.575c0-11.744,14.715-33.436,27.244-33.436
	c0-7.223,20.228-12.384,26.006-12.384c0,2.886,21.763,2.477,27.245,2.477c5.486,5.486,20.619,6.192,28.482,6.192
	c0,0.831,8.978,4.954,11.146,4.954c1.697,1.697,34.675,12.384,34.675,12.384c0.826-9.081,1.651-18.164,2.477-27.244
	c-3.346-3.346-1.239-38.29-1.239-45.82c0-35.497,0-71.003,0-106.5c-2.818-8.456-2.477-19.489-2.477-28.483
	c0-17.335,0-34.676,0-52.011c0-4.349-1.893-15.445,1.238-18.576c0.413-29.305,0.826-58.619,1.238-87.924
	c5.022-20.088,2.477-43.392,2.477-64.396c1.065,0,2.477-23.165,2.477-27.244c8.672-8.672,7.43-61.061,7.43-75.541
	c0-58.842,0-115.199,0-173.372c-3.235-3.235-4.953-4.3-4.953-8.669c0,0-10.112-7.635-11.146-8.668c-25.853,0-56.5,4.953-84.21,4.953
	c0,1.521-7.06,5.821-8.669,7.43c-6.188,0-12.377-1.245-16.099,2.477c-1.902,1.902-13.622,20.704-13.622,22.291
	c-1.97,0-12.384,12.678-12.384,16.099c0,0-12.384,12.688-12.384,17.337c-12.667,12.667-19.37,34.231-30.959,45.82
	c-3.741,0-17.983-0.592-21.052,2.477c-11.455,0-24.862-1.525-35.914,1.238c-18.574-0.413-37.153-0.826-55.727-1.238
	C383.866,333.209,363.313,330.435,361.575,319.587z"/>
<path fill-rule="evenodd" clip-rule="evenodd" fill="#172A41" d="M507.133,458.669c0,4.589-12.459,55.751-13.607,56.899
	c0,18.067-7.352,48.101-14.844,63.084c-4.454,8.908-5.11,23.664-12.37,30.923c0,12.44-6.188,28.464-8.659,40.819
	c0,2.474,0,4.948,0,7.422c-0.65,0-4.206,14.351-4.948,17.317c-6.597,18.552-13.196,37.11-19.792,55.662
	c-3.566,10.699-4.934,22.223-8.659,33.397c-2.886,9.07-5.773,18.143-8.659,27.213c-2.498,3.747-4.948,7.919-4.948,12.369
	c-8.514,8.514-22.267,43.454-22.267,55.662c0,0,12.383,19.791,18.556,19.791c0.412,0.412,0.825,0.825,1.237,1.237
	c7.45,0,20.51-1.955,24.74-6.185c14.612,0,25.306-4.948,39.584-4.948c0-1.221,1.253-2.474,2.474-2.474
	c14.098-14.097,23.194-33.398,28.452-54.425c1.558-6.232,4.948-9.527,4.948-16.08c0.972,0,4.948-16.522,4.948-19.791
	c1.927-1.927,7.422-22.104,7.422-25.976c6.325-6.325,13.272-56.796,16.082-68.031c4-16.003,8.109-37.795,18.555-48.241
	c0-4.906,5.072-16.204,8.659-19.791c0-7.739,4.911-17.206,7.422-24.738c2.474-11.131,4.948-22.266,7.422-33.397
	c3.298-11.131,6.598-22.266,9.896-33.397c9.542-9.542,23.503-47.706,23.503-60.61c0-2.295-5.405-13.606-8.659-13.606
	c0-15.819-44.452-12.369-61.851-12.369c-3.538,3.537-17.268,4.948-22.266,4.948c0,1.069-6.794,3.711-8.659,3.711
	C510.844,445.063,506.256,454.407,507.133,458.669z"/>
<path fill-rule="evenodd" clip-rule="evenodd" fill="#172A41" d="M899.117,458.093c3.451,13.795,3.517,29.677,3.517,45.693
	c7.679,7.675,11.723,32.455,11.723,43.35c11.227,11.221,19.928,64.646,19.928,80.841c4.13,4.128,2.899,13.38,4.689,18.746
	c1.949,5.843,7.539,12.564,9.378,19.917c5.365,21.447,8.461,42.028,14.067,64.439c3.516,11.715,7.034,23.434,10.55,35.148
	c7.463,7.459,16.411,36.634,16.411,45.693c2.216,2.215,11.723,31.932,11.723,33.977c8.958,8.954,17.417,12.888,35.167,12.888
	c2.988,0,7.238,0.967,9.378-1.171c4.317,0,10.981,0.74,14.067-2.343c2.937,0,22.016-3.258,23.445-4.687
	c6.512,0,26.962-6.43,26.962-14.06l-7.034-14.059c0-23.305-12.08-42.079-18.756-62.096c-3.179-9.532-2.345-20.39-2.345-30.462
	c-1.748-1.747-4.689-12.424-4.689-15.231c-5.86-10.153-11.723-20.309-17.583-30.462c-2.344-8.201-4.689-16.403-7.034-24.604
	c-0.781-12.105-1.563-24.215-2.345-36.32c-8.263-24.774-19.928-48.481-19.928-76.155c-3.877-3.875-7.033-19.213-7.033-25.776
	c-1.431-1.43-2.345-6.057-2.345-8.201c-9.679-9.674-6.299-25.917-10.55-38.664c-2.689-8.065-10.55-17.448-10.55-25.775
	c-1.563,0-1.172,0.391-1.172-1.171c-1.99-1.989-8.206-6.77-8.206-9.373c-1.519,0-9.378-4.783-9.378-5.858
	c-2.405,0-12.895-3.258-12.895-4.687c-28.222,0-70.335-6.72-70.335,29.291C898.335,457.312,898.726,457.703,899.117,458.093z"/>
</svg>
