<svg xmlns="http://www.w3.org/2000/svg" viewBox="0 0 1440 320">
    <path fill="#0099ff" fill-opacity="1" d="M0,64L24,80C48,96,96,128,144,154.7C192,181,240,203,288,202.7C336,203,384,181,432,160C480,139,528,117,576,122.7C624,128,672,160,720,149.3C768,139,816,85,864,96C912,107,960,181,1008,213.3C1056,245,1104,235,1152,213.3C1200,192,1248,160,1296,160C1344,160,1392,192,1416,208L1440,224L1440,320L1416,320C1392,320,1344,320,1296,320C1248,320,1200,320,1152,320C1104,320,1056,320,1008,320C960,320,912,320,864,320C816,320,768,320,720,320C672,320,624,320,576,320C528,320,480,320,432,320C384,320,336,320,288,320C240,320,192,320,144,320C96,320,48,320,24,320L0,320Z"></path>
</svg>