<svg xmlns="http://www.w3.org/2000/svg" viewBox="0 0 1440 320">
    <path fill="#0099ff" fill-opacity="1" d="M0,192L26.7,181.3C53.3,171,107,149,160,122.7C213.3,96,267,64,320,64C373.3,64,427,96,480,122.7C533.3,149,587,171,640,181.3C693.3,192,747,192,800,170.7C853.3,149,907,107,960,101.3C1013.3,96,1067,128,1120,160C1173.3,192,1227,224,1280,245.3C1333.3,267,1387,277,1413,282.7L1440,288L1440,0L1413.3,0C1386.7,0,1333,0,1280,0C1226.7,0,1173,0,1120,0C1066.7,0,1013,0,960,0C906.7,0,853,0,800,0C746.7,0,693,0,640,0C586.7,0,533,0,480,0C426.7,0,373,0,320,0C266.7,0,213,0,160,0C106.7,0,53,0,27,0L0,0Z"></path>
</svg>